<svg width="32" height="40" viewBox="0 0 32 40" fill="none" xmlns="http://www.w3.org/2000/svg">
<path d="M24.3161 24.2727L5.08878 5.04545L7.67969 2.45455L26.907 21.6818L24.3161 24.2727ZM7.67969 24.2727L5.08878 21.6818L24.3161 2.45455L26.907 5.04545L7.67969 24.2727Z" fill="#333A3A"/>
<path d="M8.08345 28H7.02663C6.96413 27.696 6.85476 27.429 6.69851 27.1989C6.5451 26.9688 6.3576 26.7756 6.13601 26.6193C5.91726 26.4602 5.67436 26.3409 5.40732 26.2614C5.14027 26.1818 4.86186 26.142 4.57209 26.142C4.04368 26.142 3.56499 26.2756 3.13601 26.5426C2.70987 26.8097 2.37038 27.2031 2.11754 27.723C1.86754 28.2429 1.74254 28.8807 1.74254 29.6364C1.74254 30.392 1.86754 31.0298 2.11754 31.5497C2.37038 32.0696 2.70987 32.4631 3.13601 32.7301C3.56499 32.9972 4.04368 33.1307 4.57209 33.1307C4.86186 33.1307 5.14027 33.0909 5.40732 33.0114C5.67436 32.9318 5.91726 32.8139 6.13601 32.6577C6.3576 32.4986 6.5451 32.304 6.69851 32.0739C6.85476 31.8409 6.96413 31.5739 7.02663 31.2727H8.08345C8.00391 31.7187 7.85902 32.1179 7.64879 32.4702C7.43857 32.8224 7.1772 33.1222 6.8647 33.3693C6.5522 33.6136 6.20135 33.7997 5.81215 33.9276C5.42578 34.0554 5.01243 34.1193 4.57209 34.1193C3.82777 34.1193 3.16584 33.9375 2.58629 33.5739C2.00675 33.2102 1.55078 32.6932 1.21839 32.0227C0.886009 31.3523 0.719815 30.5568 0.719815 29.6364C0.719815 28.7159 0.886009 27.9205 1.21839 27.25C1.55078 26.5795 2.00675 26.0625 2.58629 25.6989C3.16584 25.3352 3.82777 25.1534 4.57209 25.1534C5.01243 25.1534 5.42578 25.2173 5.81215 25.3452C6.20135 25.473 6.5522 25.6605 6.8647 25.9077C7.1772 26.152 7.43857 26.4503 7.64879 26.8026C7.85902 27.152 8.00391 27.5511 8.08345 28ZM10.6605 25.2727V34H9.65483V25.2727H10.6605ZM15.1616 34.1364C14.5707 34.1364 14.0522 33.9957 13.6062 33.7145C13.163 33.4332 12.8164 33.0398 12.5664 32.5341C12.3192 32.0284 12.1957 31.4375 12.1957 30.7614C12.1957 30.0795 12.3192 29.4844 12.5664 28.9759C12.8164 28.4673 13.163 28.0724 13.6062 27.7912C14.0522 27.5099 14.5707 27.3693 15.1616 27.3693C15.7525 27.3693 16.2695 27.5099 16.7127 27.7912C17.1587 28.0724 17.5053 28.4673 17.7525 28.9759C18.0025 29.4844 18.1275 30.0795 18.1275 30.7614C18.1275 31.4375 18.0025 32.0284 17.7525 32.5341C17.5053 33.0398 17.1587 33.4332 16.7127 33.7145C16.2695 33.9957 15.7525 34.1364 15.1616 34.1364ZM15.1616 33.233C15.6104 33.233 15.9798 33.1179 16.2695 32.8878C16.5593 32.6577 16.7738 32.3551 16.913 31.9801C17.0522 31.6051 17.1218 31.1989 17.1218 30.7614C17.1218 30.3239 17.0522 29.9162 16.913 29.5384C16.7738 29.1605 16.5593 28.8551 16.2695 28.6222C15.9798 28.3892 15.6104 28.2727 15.1616 28.2727C14.7127 28.2727 14.3434 28.3892 14.0536 28.6222C13.7638 28.8551 13.5494 29.1605 13.4102 29.5384C13.271 29.9162 13.2013 30.3239 13.2013 30.7614C13.2013 31.1989 13.271 31.6051 13.4102 31.9801C13.5494 32.3551 13.7638 32.6577 14.0536 32.8878C14.3434 33.1179 14.7127 33.233 15.1616 33.233ZM24.299 28.9205L23.3956 29.1761C23.3388 29.0256 23.255 28.8793 23.1442 28.7372C23.0362 28.5923 22.8885 28.473 22.701 28.3793C22.5135 28.2855 22.2734 28.2386 21.9808 28.2386C21.5803 28.2386 21.2464 28.331 20.9794 28.5156C20.7152 28.6974 20.5831 28.929 20.5831 29.2102C20.5831 29.4602 20.674 29.6577 20.8558 29.8026C21.0376 29.9474 21.3217 30.0682 21.7081 30.1648L22.6797 30.4034C23.2649 30.5455 23.701 30.7628 23.9879 31.0554C24.2749 31.3452 24.4183 31.7187 24.4183 32.1761C24.4183 32.5511 24.3104 32.8864 24.0945 33.1818C23.8814 33.4773 23.5831 33.7102 23.1996 33.8807C22.8161 34.0511 22.37 34.1364 21.8615 34.1364C21.1939 34.1364 20.6413 33.9915 20.2038 33.7017C19.7663 33.4119 19.4893 32.9886 19.3729 32.4318L20.3274 32.1932C20.4183 32.5455 20.5902 32.8097 20.843 32.9858C21.0987 33.1619 21.4325 33.25 21.8445 33.25C22.3132 33.25 22.6854 33.1506 22.9609 32.9517C23.2393 32.75 23.3786 32.5085 23.3786 32.2273C23.3786 32 23.299 31.8097 23.1399 31.6562C22.9808 31.5 22.7365 31.3835 22.407 31.3068L21.3161 31.0511C20.7166 30.9091 20.2763 30.6889 19.995 30.3906C19.7166 30.0895 19.5774 29.7131 19.5774 29.2614C19.5774 28.892 19.6811 28.5653 19.8885 28.2812C20.0987 27.9972 20.3842 27.7741 20.745 27.6122C21.1087 27.4503 21.5206 27.3693 21.9808 27.3693C22.6286 27.3693 23.1371 27.5114 23.5064 27.7955C23.8786 28.0795 24.1428 28.4545 24.299 28.9205ZM28.6765 34.1364C28.0458 34.1364 27.5018 33.9972 27.0444 33.7188C26.5898 33.4375 26.239 33.0455 25.9918 32.5426C25.7475 32.0369 25.6254 31.4489 25.6254 30.7784C25.6254 30.108 25.7475 29.517 25.9918 29.0057C26.239 28.4915 26.5827 28.0909 27.0231 27.804C27.4663 27.5142 27.9833 27.3693 28.5742 27.3693C28.9151 27.3693 29.2518 27.4261 29.5842 27.5398C29.9165 27.6534 30.2191 27.8381 30.4918 28.0938C30.7646 28.3466 30.9819 28.6818 31.1438 29.0994C31.3058 29.517 31.3867 30.0312 31.3867 30.642V31.0682H26.3413V30.1989H30.364C30.364 29.8295 30.2901 29.5 30.1424 29.2102C29.9975 28.9205 29.7901 28.6918 29.5202 28.5241C29.2532 28.3565 28.9379 28.2727 28.5742 28.2727C28.1737 28.2727 27.8271 28.3722 27.5344 28.571C27.2447 28.767 27.0217 29.0227 26.8654 29.3381C26.7092 29.6534 26.631 29.9915 26.631 30.3523V30.9318C26.631 31.4261 26.7163 31.8452 26.8867 32.1889C27.06 32.5298 27.3001 32.7898 27.6069 32.9688C27.9137 33.1449 28.2702 33.233 28.6765 33.233C28.9407 33.233 29.1793 33.196 29.3924 33.1222C29.6083 33.0455 29.7944 32.9318 29.9506 32.7812C30.1069 32.6278 30.2276 32.4375 30.3129 32.2102L31.2844 32.483C31.1822 32.8125 31.0103 33.1023 30.7688 33.3523C30.5273 33.5994 30.229 33.7926 29.8739 33.9318C29.5188 34.0682 29.1197 34.1364 28.6765 34.1364Z" fill="#333A3A"/>
</svg>
