<svg width="41" height="41" viewBox="0 0 41 41" fill="none" xmlns="http://www.w3.org/2000/svg">
<path d="M13.6667 22.2083V7.6875C13.6667 7.00788 13.9366 6.3561 14.4172 5.87554C14.8978 5.39498 15.5495 5.125 16.2292 5.125C16.9088 5.125 17.5606 5.39498 18.0411 5.87554C18.5217 6.3561 18.7917 7.00788 18.7917 7.6875V20.5M18.7917 19.6458V16.2292C18.7917 15.8927 18.8579 15.5594 18.9867 15.2485C19.1155 14.9376 19.3042 14.6552 19.5422 14.4172C19.7801 14.1793 20.0626 13.9905 20.3735 13.8617C20.6844 13.7329 21.0176 13.6667 21.3542 13.6667C21.6907 13.6667 22.0239 13.7329 22.3348 13.8617C22.6457 13.9905 22.9282 14.1793 23.1661 14.4172C23.4041 14.6552 23.5928 14.9376 23.7216 15.2485C23.8504 15.5594 23.9167 15.8927 23.9167 16.2292V20.5M23.9167 17.9375C23.9167 17.2579 24.1866 16.6061 24.6672 16.1255C25.1478 15.645 25.7995 15.375 26.4792 15.375C27.1588 15.375 27.8106 15.645 28.2911 16.1255C28.7717 16.6061 29.0417 17.2579 29.0417 17.9375V20.5" stroke="white" stroke-width="2" stroke-linecap="round" stroke-linejoin="round"/>
<path d="M29.0417 19.6458C29.0417 18.9661 29.3116 18.3144 29.7922 17.8338C30.2728 17.3532 30.9245 17.0833 31.6042 17.0833C32.2838 17.0833 32.9356 17.3532 33.4161 17.8338C33.8967 18.3144 34.1667 18.9661 34.1667 19.6458V27.3333C34.1667 30.0517 33.0868 32.6589 31.1645 34.5811C29.2423 36.5033 26.6351 37.5833 23.9167 37.5833H20.5H20.8553C19.1578 37.5835 17.4868 37.1622 15.9924 36.3572C14.4979 35.5521 13.2268 34.3885 12.2932 32.9708L11.9583 32.4583C11.4253 31.6405 9.55413 28.3788 6.34474 22.6729C6.01751 22.0913 5.9301 21.4049 6.1011 20.7598C6.27211 20.1148 6.68803 19.5618 7.26041 19.2187C7.87034 18.8537 8.58455 18.7026 9.29001 18.7893C9.99548 18.8759 10.6519 19.1953 11.1554 19.697L13.6667 22.2083" stroke="white" stroke-width="2" stroke-linecap="round" stroke-linejoin="round"/>
</svg>
