<svg width="50" height="48" viewBox="0 0 50 48" fill="none" xmlns="http://www.w3.org/2000/svg">
<path d="M16 28V25.3333H25.3333V6.66667H16V4H25.3333C26.0667 4 26.6947 4.26133 27.2173 4.784C27.74 5.30667 28.0009 5.93422 28 6.66667V25.3333C28 26.0667 27.7391 26.6947 27.2173 27.2173C26.6956 27.74 26.0676 28.0009 25.3333 28H16ZM13.3333 22.6667L11.5 20.7333L14.9 17.3333H4V14.6667H14.9L11.5 11.2667L13.3333 9.33333L20 16L13.3333 22.6667Z" fill="black"/>
<path d="M5.096 35.432C5.26133 35.4373 5.40533 35.4427 5.528 35.448C5.656 35.448 5.77067 35.448 5.872 35.448C5.94133 35.448 6.064 35.448 6.24 35.448C6.416 35.448 6.624 35.448 6.864 35.448C7.104 35.448 7.36 35.448 7.632 35.448C7.90933 35.448 8.18667 35.448 8.464 35.448C8.74133 35.448 8.99733 35.448 9.232 35.448C9.472 35.448 9.67733 35.448 9.848 35.448C10.024 35.448 10.1467 35.448 10.216 35.448C10.3067 35.448 10.4187 35.448 10.552 35.448C10.6907 35.448 10.824 35.4453 10.952 35.44C10.9467 35.5467 10.9413 35.6613 10.936 35.784C10.936 35.9013 10.936 36.016 10.936 36.128C10.936 36.1867 10.936 36.296 10.936 36.456C10.936 36.6107 10.936 36.8 10.936 37.024C10.936 37.2427 10.936 37.48 10.936 37.736C10.936 37.9867 10.936 38.2373 10.936 38.488C10.936 38.7387 10.936 38.9733 10.936 39.192C10.936 39.4107 10.936 39.5973 10.936 39.752C10.936 39.9013 10.936 40.0027 10.936 40.056C10.936 40.1253 10.936 40.216 10.936 40.328C10.9413 40.4347 10.944 40.544 10.944 40.656C10.944 40.768 10.944 40.864 10.944 40.944C10.9493 41.024 10.952 41.072 10.952 41.088H10.08C10.0853 41.0667 10.088 41.0027 10.088 40.896C10.088 40.7893 10.088 40.664 10.088 40.52C10.0933 40.376 10.096 40.2427 10.096 40.12C10.096 40.0667 10.096 39.9573 10.096 39.792C10.096 39.6267 10.096 39.4267 10.096 39.192C10.096 38.9573 10.096 38.7067 10.096 38.44C10.096 38.1733 10.096 37.912 10.096 37.656C10.096 37.3947 10.096 37.16 10.096 36.952C10.096 36.7387 10.096 36.568 10.096 36.44C10.096 36.312 10.096 36.248 10.096 36.248H5.944C5.944 36.248 5.944 36.312 5.944 36.44C5.944 36.5627 5.944 36.7307 5.944 36.944C5.944 37.1573 5.944 37.392 5.944 37.648C5.944 37.904 5.944 38.1653 5.944 38.432C5.944 38.6987 5.944 38.9493 5.944 39.184C5.944 39.4187 5.944 39.6187 5.944 39.784C5.944 39.9493 5.944 40.0613 5.944 40.12C5.944 40.1947 5.944 40.2853 5.944 40.392C5.944 40.4933 5.944 40.5947 5.944 40.696C5.94933 40.792 5.952 40.8773 5.952 40.952C5.95733 41.0267 5.96 41.072 5.96 41.088H5.088C5.088 41.072 5.088 41.024 5.088 40.944C5.09333 40.864 5.096 40.7707 5.096 40.664C5.10133 40.5573 5.104 40.4507 5.104 40.344C5.10933 40.232 5.112 40.136 5.112 40.056C5.112 39.9973 5.112 39.8907 5.112 39.736C5.112 39.5813 5.112 39.3947 5.112 39.176C5.112 38.952 5.112 38.7147 5.112 38.464C5.112 38.208 5.112 37.9547 5.112 37.704C5.112 37.4533 5.112 37.2187 5.112 37C5.112 36.7813 5.112 36.5947 5.112 36.44C5.112 36.2853 5.112 36.1813 5.112 36.128C5.112 36.0267 5.112 35.912 5.112 35.784C5.112 35.656 5.10667 35.5387 5.096 35.432ZM10.416 39.84V40.64H5.536V39.84H10.416ZM18.168 34.536C18.2373 34.6267 18.312 34.7387 18.392 34.872C18.472 35.0053 18.5493 35.1387 18.624 35.272C18.6987 35.4053 18.7627 35.5253 18.816 35.632L18.288 35.856C18.208 35.696 18.1093 35.5093 17.992 35.296C17.8747 35.0827 17.7627 34.9013 17.656 34.752L18.168 34.536ZM19.072 34.192C19.1467 34.2933 19.224 34.4107 19.304 34.544C19.3893 34.6773 19.4693 34.8107 19.544 34.944C19.624 35.072 19.688 35.184 19.736 35.28L19.216 35.512C19.1307 35.3413 19.0267 35.152 18.904 34.944C18.7867 34.736 18.672 34.5573 18.56 34.408L19.072 34.192ZM18.784 36.2C18.7413 36.264 18.7013 36.3413 18.664 36.432C18.6267 36.5227 18.592 36.608 18.56 36.688C18.4907 36.944 18.392 37.2267 18.264 37.536C18.136 37.8453 17.9787 38.1627 17.792 38.488C17.6053 38.808 17.392 39.1147 17.152 39.408C16.784 39.8613 16.344 40.272 15.832 40.64C15.3253 41.008 14.6987 41.336 13.952 41.624L13.208 40.952C13.7253 40.8027 14.1787 40.6267 14.568 40.424C14.9627 40.216 15.3093 39.9893 15.608 39.744C15.912 39.4933 16.1813 39.232 16.416 38.96C16.6187 38.7307 16.8 38.4773 16.96 38.2C17.1253 37.9173 17.2667 37.6373 17.384 37.36C17.5067 37.0773 17.5893 36.824 17.632 36.6H14.784L15.088 35.88C15.1573 35.88 15.2747 35.88 15.44 35.88C15.6107 35.88 15.8027 35.88 16.016 35.88C16.2347 35.88 16.448 35.88 16.656 35.88C16.8693 35.88 17.0533 35.88 17.208 35.88C17.368 35.88 17.4747 35.88 17.528 35.88C17.64 35.88 17.7493 35.8747 17.856 35.864C17.9627 35.848 18.0533 35.8267 18.128 35.8L18.784 36.2ZM16.136 34.968C16.056 35.0853 15.976 35.2133 15.896 35.352C15.8213 35.4907 15.7627 35.5973 15.72 35.672C15.5547 35.9813 15.344 36.3067 15.088 36.648C14.8373 36.9893 14.5467 37.3227 14.216 37.648C13.8853 37.9733 13.5147 38.2747 13.104 38.552L12.4 38.032C12.7467 37.824 13.056 37.6027 13.328 37.368C13.6 37.1333 13.8347 36.8987 14.032 36.664C14.2347 36.424 14.408 36.1947 14.552 35.976C14.696 35.7573 14.816 35.56 14.912 35.384C14.96 35.304 15.0133 35.192 15.072 35.048C15.1307 34.904 15.176 34.776 15.208 34.664L16.136 34.968ZM20.608 38.016C21.312 37.8293 21.9573 37.608 22.544 37.352C23.136 37.0907 23.6533 36.8213 24.096 36.544C24.3787 36.3733 24.6533 36.1813 24.92 35.968C25.192 35.7547 25.448 35.5333 25.688 35.304C25.928 35.0747 26.1387 34.8533 26.32 34.64L26.992 35.28C26.7573 35.52 26.504 35.7573 26.232 35.992C25.96 36.2267 25.672 36.4533 25.368 36.672C25.0693 36.8853 24.7627 37.088 24.448 37.28C24.1547 37.4613 23.8213 37.6453 23.448 37.832C23.0747 38.0133 22.68 38.1893 22.264 38.36C21.848 38.5253 21.4267 38.6747 21 38.808L20.608 38.016ZM23.952 36.96L24.84 36.728V40.352C24.84 40.4587 24.84 40.576 24.84 40.704C24.8453 40.8267 24.8507 40.9413 24.856 41.048C24.8667 41.1547 24.88 41.2373 24.896 41.296H23.904C23.9093 41.2373 23.9173 41.1547 23.928 41.048C23.9387 40.9413 23.944 40.8267 23.944 40.704C23.9493 40.576 23.952 40.4587 23.952 40.352V36.96ZM29.864 35.04C30.008 35.136 30.1733 35.256 30.36 35.4C30.5467 35.5387 30.736 35.688 30.928 35.848C31.1253 36.008 31.312 36.1627 31.488 36.312C31.664 36.4613 31.8053 36.5947 31.912 36.712L31.28 37.36C31.1787 37.2533 31.0453 37.1253 30.88 36.976C30.7147 36.8213 30.536 36.664 30.344 36.504C30.1573 36.3387 29.9707 36.184 29.784 36.04C29.5973 35.8907 29.4293 35.7653 29.28 35.664L29.864 35.04ZM29.04 40.392C29.488 40.3227 29.9013 40.232 30.28 40.12C30.6587 40.0027 31.0053 39.872 31.32 39.728C31.64 39.5787 31.928 39.4267 32.184 39.272C32.6107 39.0107 33.0027 38.7093 33.36 38.368C33.7227 38.0267 34.04 37.6747 34.312 37.312C34.584 36.9493 34.8 36.5973 34.96 36.256L35.448 37.128C35.256 37.4747 35.0187 37.8213 34.736 38.168C34.4587 38.5147 34.144 38.848 33.792 39.168C33.44 39.4827 33.056 39.768 32.64 40.024C32.3733 40.1893 32.08 40.3493 31.76 40.504C31.4453 40.6587 31.104 40.7973 30.736 40.92C30.3733 41.0427 29.9867 41.1413 29.576 41.216L29.04 40.392Z" fill="black"/>
</svg>
