<svg width="24" height="22" viewBox="0 0 24 22" fill="none" xmlns="http://www.w3.org/2000/svg">
<path d="M15.754 8C16.72 8 17.504 8.784 17.504 9.75V16.499C17.504 17.958 16.9244 19.3572 15.8928 20.3888C14.8612 21.4204 13.462 22 12.003 22C10.544 22 9.14484 21.4204 8.11321 20.3888C7.08157 19.3572 6.502 17.958 6.502 16.499V9.75C6.502 8.784 7.285 8 8.252 8H15.754ZM1.75 8L6.132 7.998C5.77165 8.43222 5.5547 8.96743 5.511 9.53L5.501 9.75V16.499C5.501 17.632 5.792 18.698 6.301 19.626C5.61593 19.9252 4.86712 20.049 4.12221 19.9862C3.3773 19.9235 2.65975 19.6761 2.0344 19.2665C1.40905 18.8569 0.895584 18.298 0.540396 17.6402C0.185207 16.9825 -0.000517043 16.2466 1.08111e-06 15.499V9.75C1.04357e-06 9.5201 0.0452993 9.29246 0.133308 9.08007C0.221316 8.86769 0.350309 8.67473 0.512918 8.51221C0.675526 8.34969 0.868563 8.22081 1.081 8.13292C1.29343 8.04504 1.5201 7.99987 1.75 8ZM17.875 7.998L22.25 8C23.216 8 24 8.784 24 9.75V15.5C24.0003 16.2472 23.8146 16.9826 23.4595 17.6401C23.1045 18.2975 22.5914 18.8562 21.9664 19.2657C21.3415 19.6752 20.6244 19.9227 19.8799 19.9857C19.1354 20.0488 18.3869 19.9255 17.702 19.627L17.758 19.525C18.187 18.712 18.448 17.796 18.496 16.825L18.504 16.499V9.75C18.504 9.084 18.268 8.474 17.875 7.998ZM12 0C12.4596 -9.6859e-09 12.9148 0.0905301 13.3394 0.266422C13.764 0.442313 14.1499 0.700121 14.4749 1.02513C14.7999 1.35013 15.0577 1.73597 15.2336 2.16061C15.4095 2.58525 15.5 3.04037 15.5 3.5C15.5 3.95963 15.4095 4.41475 15.2336 4.83939C15.0577 5.26403 14.7999 5.64987 14.4749 5.97487C14.1499 6.29988 13.764 6.55769 13.3394 6.73358C12.9148 6.90947 12.4596 7 12 7C11.0717 7 10.1815 6.63125 9.52513 5.97487C8.86875 5.3185 8.5 4.42826 8.5 3.5C8.5 2.57174 8.86875 1.6815 9.52513 1.02513C10.1815 0.368749 11.0717 1.95616e-08 12 0ZM20.003 1C20.397 1 20.7871 1.0776 21.1511 1.22836C21.515 1.37913 21.8457 1.6001 22.1243 1.87868C22.4029 2.15726 22.6239 2.48797 22.7746 2.85195C22.9254 3.21593 23.003 3.60603 23.003 4C23.003 4.39397 22.9254 4.78407 22.7746 5.14805C22.6239 5.51203 22.4029 5.84274 22.1243 6.12132C21.8457 6.3999 21.515 6.62087 21.1511 6.77164C20.7871 6.9224 20.397 7 20.003 7C19.2074 7 18.4443 6.68393 17.8817 6.12132C17.3191 5.55871 17.003 4.79565 17.003 4C17.003 3.20435 17.3191 2.44129 17.8817 1.87868C18.4443 1.31607 19.2074 1 20.003 1ZM3.997 1C4.39097 1 4.78107 1.0776 5.14505 1.22836C5.50903 1.37913 5.83975 1.6001 6.11832 1.87868C6.3969 2.15726 6.61788 2.48797 6.76864 2.85195C6.9194 3.21593 6.997 3.60603 6.997 4C6.997 4.39397 6.9194 4.78407 6.76864 5.14805C6.61788 5.51203 6.3969 5.84274 6.11832 6.12132C5.83975 6.3999 5.50903 6.62087 5.14505 6.77164C4.78107 6.9224 4.39097 7 3.997 7C3.20135 7 2.43829 6.68393 1.87568 6.12132C1.31307 5.55871 0.997001 4.79565 0.997001 4C0.997001 3.20435 1.31307 2.44129 1.87568 1.87868C2.43829 1.31607 3.20135 1 3.997 1Z" fill="white"/>
</svg>
