<svg width="26" height="26" viewBox="0 0 26 26" fill="none" xmlns="http://www.w3.org/2000/svg">
<path d="M13 10.8333C13.4979 10.8333 13.991 10.7353 14.451 10.5447C14.911 10.3542 15.329 10.0749 15.6811 9.72278C16.0332 9.37069 16.3125 8.9527 16.503 8.49267C16.6936 8.03265 16.7917 7.5396 16.7917 7.04167C16.7917 6.54374 16.6936 6.05068 16.503 5.59066C16.3125 5.13063 16.0332 4.71264 15.6811 4.36055C15.329 4.00846 14.911 3.72917 14.451 3.53862C13.991 3.34807 13.4979 3.25 13 3.25C11.9944 3.25 11.03 3.64948 10.3189 4.36055C9.60781 5.07163 9.20833 6.03605 9.20833 7.04167C9.20833 8.04728 9.60781 9.0117 10.3189 9.72278C11.03 10.4339 11.9944 10.8333 13 10.8333ZM3.25 22.1V22.75H22.75V22.1C22.75 19.6733 22.75 18.46 22.2777 17.5327C21.8622 16.7173 21.1993 16.0544 20.384 15.639C19.4567 15.1667 18.2433 15.1667 15.8167 15.1667H10.1833C7.75667 15.1667 6.54333 15.1667 5.616 15.639C4.80067 16.0544 4.13778 16.7173 3.72233 17.5327C3.25 18.46 3.25 19.6733 3.25 22.1Z" fill="black" stroke="black" stroke-width="2" stroke-linecap="round" stroke-linejoin="round"/>
</svg>
