<svg width="32" height="52" viewBox="0 0 32 52" fill="none" xmlns="http://www.w3.org/2000/svg">
<path d="M16 17.8333C16.4979 17.8333 16.991 17.7353 17.451 17.5447C17.911 17.3542 18.329 17.0749 18.6811 16.7228C19.0332 16.3707 19.3125 15.9527 19.503 15.4927C19.6936 15.0326 19.7917 14.5396 19.7917 14.0417C19.7917 13.5437 19.6936 13.0507 19.503 12.5907C19.3125 12.1306 19.0332 11.7126 18.6811 11.3606C18.329 11.0085 17.911 10.7292 17.451 10.5386C16.991 10.3481 16.4979 10.25 16 10.25C14.9944 10.25 14.03 10.6495 13.3189 11.3606C12.6078 12.0716 12.2083 13.0361 12.2083 14.0417C12.2083 15.0473 12.6078 16.0117 13.3189 16.7228C14.03 17.4339 14.9944 17.8333 16 17.8333ZM6.25 29.1V29.75H25.75V29.1C25.75 26.6733 25.75 25.46 25.2777 24.5327C24.8622 23.7173 24.1993 23.0544 23.384 22.639C22.4567 22.1667 21.2433 22.1667 18.8167 22.1667H13.1833C10.7567 22.1667 9.54333 22.1667 8.616 22.639C7.80067 23.0544 7.13778 23.7173 6.72233 24.5327C6.25 25.46 6.25 26.6733 6.25 29.1Z" fill="black" stroke="black" stroke-width="2" stroke-linecap="round" stroke-linejoin="round"/>
<path d="M0.76 44.664C1.23467 44.6533 1.78133 44.6373 2.4 44.616C3.024 44.5947 3.68267 44.5707 4.376 44.544C5.07467 44.5173 5.768 44.4907 6.456 44.464L6.424 45.152C5.76267 45.1893 5.09333 45.224 4.416 45.256C3.744 45.288 3.10133 45.3173 2.488 45.344C1.88 45.3707 1.33867 45.392 0.864 45.408L0.76 44.664ZM0.704 42.232H7.344V42.944H0.704V42.232ZM2.096 40.696H5.888V41.4H2.096V40.696ZM2.792 42.696L3.648 42.928C3.52533 43.184 3.39467 43.448 3.256 43.72C3.12267 43.9867 2.98667 44.2453 2.848 44.496C2.70933 44.7413 2.57867 44.9627 2.456 45.16L1.784 44.936C1.90667 44.728 2.032 44.496 2.16 44.24C2.288 43.9787 2.408 43.712 2.52 43.44C2.632 43.168 2.72267 42.92 2.792 42.696ZM4.736 43.528L5.392 43.184C5.63733 43.3867 5.88 43.6107 6.12 43.856C6.36 44.1013 6.57867 44.3467 6.776 44.592C6.97867 44.8373 7.14133 45.0613 7.264 45.264L6.568 45.688C6.45067 45.4853 6.29333 45.256 6.096 45C5.89867 44.7493 5.68 44.496 5.44 44.24C5.20533 43.9787 4.97067 43.7413 4.736 43.528ZM3.976 38.984C3.76267 39.2987 3.48533 39.6213 3.144 39.952C2.80267 40.2773 2.42133 40.5893 2 40.888C1.584 41.1813 1.14933 41.44 0.696 41.664C0.669333 41.6 0.629333 41.5307 0.576 41.456C0.528 41.376 0.474667 41.3013 0.416 41.232C0.357333 41.1573 0.301333 41.0907 0.248 41.032C0.712 40.824 1.15733 40.5653 1.584 40.256C2.01067 39.9467 2.39467 39.6187 2.736 39.272C3.07733 38.9253 3.34933 38.5867 3.552 38.256H4.336C4.54933 38.5547 4.78933 38.8373 5.056 39.104C5.32267 39.3707 5.608 39.6187 5.912 39.848C6.216 40.0773 6.52533 40.2827 6.84 40.464C7.16 40.6453 7.48 40.7973 7.8 40.92C7.70933 41.016 7.62133 41.128 7.536 41.256C7.456 41.3787 7.38133 41.496 7.312 41.608C6.90133 41.4107 6.48533 41.1707 6.064 40.888C5.64267 40.6053 5.25067 40.3013 4.888 39.976C4.52533 39.6453 4.22133 39.3147 3.976 38.984ZM10.24 39.128V39.824H13.8V39.128H10.24ZM9.48 38.528H14.6V40.424H9.48V38.528ZM9.88 42.328V42.792H14.12V42.328H9.88ZM9.88 43.296V43.776H14.12V43.296H9.88ZM9.88 41.36V41.816H14.12V41.36H9.88ZM9.128 40.816H14.904V44.312H9.128V40.816ZM10.664 44.232L11.352 44.696C11.1387 44.824 10.888 44.9493 10.6 45.072C10.3173 45.2 10.024 45.3147 9.72 45.416C9.416 45.5227 9.12533 45.6107 8.848 45.68C8.784 45.6 8.696 45.5067 8.584 45.4C8.472 45.2933 8.37067 45.2027 8.28 45.128C8.56267 45.064 8.856 44.984 9.16 44.888C9.464 44.7867 9.74933 44.68 10.016 44.568C10.2827 44.4507 10.4987 44.3387 10.664 44.232ZM12.528 44.752L13.192 44.264C13.4747 44.3387 13.7707 44.4293 14.08 44.536C14.3947 44.6427 14.696 44.7493 14.984 44.856C15.2773 44.9627 15.5307 45.0613 15.744 45.152L15.08 45.688C14.8773 45.592 14.6293 45.488 14.336 45.376C14.048 45.264 13.744 45.152 13.424 45.04C13.1093 44.928 12.8107 44.832 12.528 44.752ZM18.52 40.44H21.488V41.08H18.52V40.44ZM16.544 44.872H23.488V45.496H16.544V44.872ZM17.008 38.544H19.328V39.168H17.008V38.544ZM19.088 38.544H19.216L19.352 38.512L19.84 38.768C19.696 39.152 19.5093 39.512 19.28 39.848C19.0507 40.184 18.792 40.4933 18.504 40.776C18.2213 41.0533 17.92 41.3013 17.6 41.52C17.28 41.7333 16.9573 41.9173 16.632 42.072C16.584 41.992 16.5147 41.8987 16.424 41.792C16.3387 41.68 16.256 41.5893 16.176 41.52C16.4747 41.3973 16.7707 41.24 17.064 41.048C17.3573 40.8507 17.6347 40.6267 17.896 40.376C18.1627 40.1253 18.3973 39.8587 18.6 39.576C18.808 39.288 18.9707 38.9893 19.088 38.68V38.544ZM20.648 38.272C20.84 38.7147 21.0933 39.136 21.408 39.536C21.728 39.936 22.0907 40.2933 22.496 40.608C22.9013 40.9173 23.336 41.1627 23.8 41.344C23.7413 41.392 23.68 41.4533 23.616 41.528C23.552 41.6027 23.4907 41.68 23.432 41.76C23.3733 41.8347 23.3253 41.904 23.288 41.968C22.808 41.7493 22.36 41.4667 21.944 41.12C21.528 40.768 21.1573 40.368 20.832 39.92C20.5067 39.472 20.2293 38.9893 20 38.472L20.648 38.272ZM16.72 39.816L17.128 39.392C17.2613 39.4667 17.3973 39.552 17.536 39.648C17.6747 39.744 17.8053 39.8427 17.928 39.944C18.0507 40.0453 18.1467 40.1413 18.216 40.232L17.792 40.688C17.6853 40.56 17.528 40.4133 17.32 40.248C17.1173 40.0773 16.9173 39.9333 16.72 39.816ZM22.088 38.32L22.664 38.72C22.4453 38.912 22.2107 39.104 21.96 39.296C21.7147 39.488 21.488 39.6507 21.28 39.784L20.824 39.432C20.9573 39.3307 21.1013 39.216 21.256 39.088C21.4107 38.96 21.56 38.8293 21.704 38.696C21.8533 38.5573 21.9813 38.432 22.088 38.32ZM22.984 39.256L23.544 39.648C23.3307 39.8453 23.0933 40.0453 22.832 40.248C22.5707 40.4453 22.3307 40.6107 22.112 40.744L21.648 40.392C21.792 40.2907 21.9467 40.176 22.112 40.048C22.2773 39.92 22.4373 39.7867 22.592 39.648C22.7467 39.5093 22.8773 39.3787 22.984 39.256ZM18.472 42.256V43.16H21.496V42.256H18.472ZM17.736 41.648H22.272V43.776H17.736V41.648ZM18.2 43.888L18.888 43.712C18.9947 43.872 19.0933 44.0507 19.184 44.248C19.2747 44.4453 19.3413 44.6187 19.384 44.768L18.656 44.984C18.624 44.8347 18.5653 44.656 18.48 44.448C18.3947 44.24 18.3013 44.0533 18.2 43.888ZM21.12 43.688L21.856 43.864C21.7493 44.072 21.6427 44.2747 21.536 44.472C21.4347 44.664 21.3387 44.8293 21.248 44.968L20.592 44.808C20.656 44.7013 20.72 44.584 20.784 44.456C20.8533 44.328 20.9173 44.1973 20.976 44.064C21.0347 43.9253 21.0827 43.8 21.12 43.688ZM31.088 41.792L31.68 42.168C31.5253 42.3547 31.3573 42.544 31.176 42.736C31 42.9227 30.8347 43.088 30.68 43.232L30.208 42.904C30.304 42.8027 30.4053 42.6907 30.512 42.568C30.6187 42.44 30.7227 42.3093 30.824 42.176C30.9307 42.0373 31.0187 41.9093 31.088 41.792ZM27.52 42.248L28.024 41.92C28.1893 42.0747 28.3547 42.2507 28.52 42.448C28.6853 42.64 28.808 42.8133 28.888 42.968L28.344 43.328C28.2747 43.1733 28.16 42.9947 28 42.792C27.8453 42.584 27.6853 42.4027 27.52 42.248ZM27.816 38.544H31.056V41.288H30.36V39.176H27.816V38.544ZM27.976 39.752H30.752V40.344H27.976V39.752ZM27.408 40.92H31.688V41.568H27.408V40.92ZM29.144 41.232H29.848V44.92C29.848 45.0907 29.8293 45.224 29.792 45.32C29.7547 45.4213 29.6827 45.4987 29.576 45.552C29.4693 45.6107 29.336 45.6453 29.176 45.656C29.0213 45.6667 28.832 45.672 28.608 45.672C28.6027 45.5813 28.5787 45.472 28.536 45.344C28.4987 45.2213 28.4587 45.112 28.416 45.016C28.5547 45.0213 28.68 45.024 28.792 45.024C28.9093 45.024 28.9893 45.024 29.032 45.024C29.0747 45.0187 29.104 45.008 29.12 44.992C29.136 44.976 29.144 44.9467 29.144 44.904V41.232ZM27.208 44.504C27.416 44.3867 27.6613 44.2347 27.944 44.048C28.232 43.8613 28.528 43.6667 28.832 43.464L29.056 44.04C28.8107 44.232 28.5573 44.4213 28.296 44.608C28.04 44.7947 27.7947 44.968 27.56 45.128L27.208 44.504ZM29.824 41.688C29.8827 41.9387 29.9653 42.2027 30.072 42.48C30.184 42.7573 30.3227 43.0293 30.488 43.296C30.6533 43.5627 30.848 43.808 31.072 44.032C31.3013 44.256 31.5627 44.4453 31.856 44.6C31.8027 44.6427 31.744 44.7013 31.68 44.776C31.6213 44.8507 31.5627 44.9253 31.504 45C31.4507 45.08 31.4053 45.1547 31.368 45.224C31.08 45.0427 30.8267 44.8267 30.608 44.576C30.3893 44.3253 30.2 44.0587 30.04 43.776C29.8853 43.488 29.7547 43.2027 29.648 42.92C29.5413 42.6373 29.456 42.376 29.392 42.136L29.824 41.688ZM24.84 40.232H27.152V40.872H24.84V40.232ZM24.432 41.608H27.36V42.264H24.432V41.608ZM24.568 42.752L25.064 42.632C25.144 42.8667 25.2107 43.12 25.264 43.392C25.3227 43.6587 25.36 43.8907 25.376 44.088L24.84 44.232C24.8347 44.0293 24.8053 43.792 24.752 43.52C24.6987 43.2427 24.6373 42.9867 24.568 42.752ZM24.344 44.768C24.6 44.7253 24.888 44.6747 25.208 44.616C25.5333 44.5573 25.8773 44.4933 26.24 44.424C26.6027 44.3547 26.9627 44.2853 27.32 44.216L27.376 44.856C26.8693 44.9627 26.3627 45.0693 25.856 45.176C25.3547 45.2827 24.9013 45.376 24.496 45.456L24.344 44.768ZM26.784 42.56L27.352 42.704C27.2827 42.9387 27.2133 43.184 27.144 43.44C27.0747 43.6907 27.0107 43.904 26.952 44.08L26.472 43.944C26.5093 43.816 26.5467 43.672 26.584 43.512C26.6267 43.3467 26.6667 43.1813 26.704 43.016C26.7413 42.8453 26.768 42.6933 26.784 42.56ZM25.616 40.48H26.272V44.816L25.616 44.928V40.48ZM25.584 38.248H25.976V38.4H26.2V38.592C26.0453 38.896 25.8347 39.2427 25.568 39.632C25.3067 40.0213 24.9787 40.3947 24.584 40.752C24.552 40.6987 24.5093 40.64 24.456 40.576C24.4027 40.512 24.3467 40.4533 24.288 40.4C24.2293 40.3413 24.176 40.296 24.128 40.264C24.3627 40.0667 24.5733 39.8533 24.76 39.624C24.9467 39.3893 25.1093 39.1547 25.248 38.92C25.3867 38.68 25.4987 38.456 25.584 38.248ZM25.688 38.248H26.232C26.392 38.3867 26.5573 38.5413 26.728 38.712C26.8987 38.8773 27.0587 39.0453 27.208 39.216C27.3627 39.3813 27.4853 39.5307 27.576 39.664L27.08 40.24C26.9947 40.1067 26.8827 39.952 26.744 39.776C26.6053 39.5947 26.456 39.416 26.296 39.24C26.136 39.064 25.9787 38.912 25.824 38.784H25.688V38.248Z" fill="black"/>
<path d="M24.7969 15.2614V7.57955H26.3253V15.2614H24.7969ZM21.723 12.1818V10.6534H29.4048V12.1818H21.723Z" fill="black"/>
</svg>
