<svg width="10000" height="1765" viewBox="0 0 10000 1765" fill="none" xmlns="http://www.w3.org/2000/svg">
<path d="M9498.23 1186.95H9164.39L9162.62 999.465H9433.26C9481.9 999.465 9520.77 994.573 9549.86 984.788C9578.91 974.465 9600 959.517 9613.08 939.953C9626.7 920.388 9633.53 895.936 9633.53 866.588C9633.53 832.894 9626.7 805.722 9613.08 785.072C9599.41 764.421 9577.74 749.473 9548.05 740.236C9519 730.452 9481.31 725.564 9435.02 725.564H9281.9V1691.55H8969.46V504.649H9435.02C9515.16 504.649 9586.65 511.442 9649.55 525.028C9712.44 538.071 9765.88 558.179 9809.77 585.351C9854.3 612.523 9888.14 646.764 9911.27 688.065C9934.43 728.823 9946.02 776.916 9946.02 832.351C9946.02 880.717 9934.71 926.095 9912.17 968.487C9889.64 1010.87 9851.95 1045.39 9799.09 1072.02C9746.88 1098.1 9675.38 1111.69 9584.57 1112.77L9498.23 1186.95ZM9485.75 1691.55H9088.73L9195.57 1471.45H9485.75C9528.51 1471.45 9562.62 1465.47 9588.14 1453.52C9614.25 1441.02 9632.94 1424.72 9644.21 1404.61C9656.06 1383.95 9662.04 1361.13 9662.04 1336.13C9662.04 1305.7 9656.38 1279.34 9645.11 1257.06C9634.43 1234.78 9617.19 1217.66 9593.48 1205.7C9569.73 1193.2 9537.96 1186.95 9498.23 1186.95H9235.61L9237.38 999.465H9551.63L9624.61 1074.46C9711.27 1071.2 9779.82 1082.34 9830.27 1107.88C9881.31 1133.42 9917.83 1167.12 9939.77 1208.97C9961.72 1250.81 9972.71 1294.56 9972.71 1340.21C9972.71 1417.92 9954.3 1482.87 9917.51 1535.04C9881.31 1587.21 9827.01 1626.34 9754.61 1652.42C9682.22 1678.51 9592.58 1691.55 9485.75 1691.55Z" fill="#413D3D"/>
<path d="M8460.23 504.649H8772.71V1279.88C8772.71 1372.27 8751.63 1450.53 8709.5 1514.65C8667.38 1578.24 8608.33 1626.34 8532.35 1658.95C8456.38 1691.55 8367.06 1707.85 8264.39 1707.85C8162.9 1707.85 8073.57 1691.55 7996.43 1658.95C7919.91 1626.34 7859.95 1578.24 7816.61 1514.65C7773.89 1450.53 7752.53 1372.27 7752.53 1279.88V504.649H8065.88V1279.88C8065.88 1328.8 8073.57 1368.74 8089 1399.72C8104.48 1430.15 8127.01 1452.43 8156.7 1466.56C8186.33 1480.69 8222.26 1487.75 8264.39 1487.75C8307.15 1487.75 8343.03 1480.69 8372.13 1466.56C8401.18 1452.43 8423.17 1430.15 8438.01 1399.72C8452.81 1368.74 8460.23 1328.8 8460.23 1279.88V504.649Z" fill="#413D3D"/>
<path d="M7348.37 975.823V1195.92H6683.39V975.823H7348.37ZM6787.56 504.649V1691.55H6475.07V504.649H6787.56ZM7558.46 504.649V1691.55H7246.88V504.649H7558.46Z" fill="#413D3D"/>
<path d="M5959.64 1506.83V1061.54C5959.64 1027.43 5951.81 997.85 5936.15 972.801C5921.09 947.217 5898.19 927.499 5867.47 913.641C5836.7 899.784 5798.73 892.855 5753.57 892.855C5711.36 892.855 5674.3 899.254 5642.4 912.044C5611.04 924.833 5586.33 941.623 5568.28 962.41C5550.81 983.196 5542.04 1005.58 5542.04 1029.56H5374.84C5374.84 998.651 5383.89 968.003 5401.95 937.627C5420.05 907.247 5445.93 879.799 5479.68 855.283C5514.03 830.234 5555.02 810.516 5602.62 796.124C5650.81 781.203 5704.43 773.74 5763.48 773.74C5834.62 773.74 5897.29 784.398 5951.49 805.718C6006.33 827.034 6049.14 859.279 6079.86 902.449C6111.18 945.086 6126.83 998.651 6126.83 1063.14V1466.05C6126.83 1494.84 6129.55 1525.48 6134.98 1557.99C6141 1590.51 6149.73 1618.48 6161.18 1641.93V1654.72H5986.74C5978.33 1637.67 5971.67 1615.02 5966.88 1586.77C5962.04 1557.99 5959.64 1531.35 5959.64 1506.83ZM5988.55 1130.29L5990.36 1234.22H5821.36C5773.76 1234.22 5731.27 1237.68 5693.89 1244.61C5656.56 1251.01 5625.2 1260.87 5599.91 1274.19C5574.62 1287.51 5555.29 1304.3 5542.04 1324.56C5528.78 1344.27 5522.17 1367.46 5522.17 1394.11C5522.17 1421.29 5529.1 1446.07 5542.94 1468.45C5556.83 1490.84 5577.6 1508.7 5605.34 1522.02C5633.67 1534.81 5668.28 1541.2 5709.28 1541.2C5760.5 1541.2 5805.7 1531.61 5844.84 1512.42C5884.03 1493.24 5915.07 1469.79 5937.96 1442.07C5961.45 1414.36 5974.12 1387.44 5975.93 1361.33L6047.33 1432.48C6043.08 1454.86 6031.63 1479.65 6012.99 1506.83C5994.3 1534.01 5969.28 1560.12 5937.96 1585.17C5907.19 1609.69 5870.45 1630.21 5827.69 1646.73C5785.48 1662.72 5737.87 1670.71 5684.89 1670.71C5618.6 1670.71 5560.45 1659.25 5510.41 1636.34C5461 1613.42 5422.44 1582.78 5394.71 1544.4C5367.6 1505.5 5354.07 1462.06 5354.07 1414.09C5354.07 1367.73 5364.3 1326.95 5384.8 1291.78C5405.29 1256.07 5434.8 1226.49 5473.35 1203.04C5511.95 1179.06 5558.33 1160.94 5612.58 1148.68C5666.79 1136.42 5727.33 1130.29 5794.25 1130.29H5988.55Z" fill="#17A548"/>
<path d="M4730.72 818.589L4925.2 1128.88L5122.13 818.589H5300.18L5009.73 1239.14L5309.23 1670.71H5133.62L4928.46 1350.97L4723.35 1670.71H4546.92L4845.61 1239.14L4555.93 818.589H4730.72Z" fill="#17A548"/>
<path d="M4156.19 1670.71C4086.27 1670.71 4022.85 1660.59 3965.93 1640.34C3909.62 1619.55 3861.05 1590.51 3820.22 1553.2C3780 1515.89 3749.07 1471.65 3727.41 1420.49C3705.76 1369.32 3694.93 1313.36 3694.93 1252.61V1219.03C3694.93 1148.68 3707 1086.05 3731.12 1031.16C3755.25 975.733 3788.05 928.834 3829.5 890.461C3870.95 852.084 3917.98 823.038 3970.57 803.32C4023.16 783.602 4077.61 773.74 4133.91 773.74C4205.69 773.74 4267.56 784.398 4319.53 805.718C4372.12 827.034 4415.12 856.881 4448.53 895.254C4481.95 933.097 4506.7 977.865 4522.78 1029.56C4538.87 1080.73 4546.92 1136.69 4546.92 1197.44V1263.8H3797.02V1143.08H3872.74H4375.22V1131.89C4372.74 1093.52 4363.46 1056.21 4347.38 1019.97C4331.9 983.725 4307.16 953.883 4273.13 930.431C4239.09 906.98 4192.69 895.254 4133.91 895.254C4094.93 895.254 4059.05 902.449 4026.26 916.841C3993.46 930.699 3965.31 951.485 3941.8 979.195C3918.29 1006.91 3900.04 1040.75 3887.04 1080.73C3880.75 1100.08 3875.99 1120.86 3872.74 1143.08C3869.28 1166.77 3867.55 1192.08 3867.55 1219.03V1252.61C3867.55 1293.65 3874.05 1332.29 3887.04 1368.53C3900.66 1404.23 3920.14 1435.68 3945.51 1462.86C3971.5 1490.04 4002.74 1511.36 4039.25 1526.82C4076.37 1542.27 4118.44 1550 4165.47 1550C4226.1 1550 4277.46 1539.34 4319.53 1518.02C4361.61 1496.7 4398.42 1468.19 4429.97 1432.48L4533.94 1503.63C4512.26 1531.88 4484.73 1558.79 4451.32 1584.37C4417.91 1609.96 4376.76 1630.74 4327.88 1646.73C4279.62 1662.72 4222.39 1670.71 4156.19 1670.71Z" fill="#17A548"/>
<path d="M3872.74 1143.08H4375.22V1131.89C4372.74 1093.52 4363.46 1056.21 4347.38 1019.97C4331.9 983.725 4307.16 953.883 4273.13 930.431C4239.09 906.979 4192.69 895.253 4133.91 895.253C4094.93 895.253 4059.05 902.449 4026.26 916.84C3993.46 930.698 3965.31 951.484 3941.8 979.195C3918.29 1006.91 3900.04 1040.75 3887.04 1080.73C3880.75 1100.07 3875.99 1120.86 3872.74 1143.08Z" fill="#01E601"/>
<path d="M3605.25 504.649V1670.71H3434.37L2788.74 771.336V1670.71H2618.74V504.649H2788.74L3437.01 1406.43V504.649H3605.25Z" fill="#17A548"/>
<path d="M17.9501 885.867L264.577 370.106H780.249L533.624 885.867H17.9501Z" fill="#17A545" stroke="#10A64A" stroke-width="0.5"/>
<path d="M17.9501 908.287H533.624L914.774 1715.57H399.1L17.9501 908.287Z" fill="#00E700" stroke="#01E601" stroke-width="0.5"/>
<path d="M1183.82 818.589L825.095 11.3145H1363.19L1699.5 796.165L1318.35 1693.14H1116.56L959.62 1356.77L1183.82 818.589Z" fill="#3F3E3B" stroke="#3F3E3B" stroke-width="0.5"/>
</svg>
