<svg width="15" height="43" viewBox="0 0 15 43" fill="none" xmlns="http://www.w3.org/2000/svg">
<path d="M7.44474 0C8.57301 0 9.65506 0.448202 10.4529 1.24601C11.2507 2.04381 11.6989 3.12587 11.6989 4.25414C11.6989 5.3824 11.2507 6.46446 10.4529 7.26227C9.65506 8.06007 8.57301 8.50828 7.44474 8.50828C6.31647 8.50828 5.23442 8.06007 4.43661 7.26227C3.63881 6.46446 3.1906 5.3824 3.1906 4.25414C3.1906 3.12587 3.63881 2.04381 4.43661 1.24601C5.23442 0.448202 6.31647 0 7.44474 0ZM4.25414 10.6353H10.6353C11.7636 10.6353 12.8457 11.0835 13.6435 11.8814C14.4413 12.6792 14.8895 13.7612 14.8895 14.8895V26.5884H11.6989V42.5414H3.1906V26.5884H0V14.8895C0 13.7612 0.448203 12.6792 1.24601 11.8814C2.04381 11.0835 3.12587 10.6353 4.25414 10.6353Z" fill="white"/>
</svg>
