<svg width="35" height="35" viewBox="0 0 35 35" fill="none" xmlns="http://www.w3.org/2000/svg">
<path d="M27.7084 26.25C29.7704 26.25 30.8015 26.25 31.4417 25.6083C32.0834 24.9681 32.0834 23.937 32.0834 21.875C32.0834 19.8129 32.0834 18.7818 31.4417 18.1416C30.8029 17.5 29.7719 17.5 27.7084 17.5M7.29169 26.25C5.2296 26.25 4.19856 26.25 3.55835 25.6083C2.91669 24.9695 2.91669 23.9385 2.91669 21.875C2.91669 19.8114 2.91669 18.7818 3.55835 18.1416C4.1971 17.5 5.22815 17.5 7.29169 17.5M27.7084 23.3333V20.4166C27.7084 16.2925 27.7084 14.2289 26.4265 12.9485C25.1461 11.6666 23.0825 11.6666 18.9584 11.6666H16.0417C11.9175 11.6666 9.85398 11.6666 8.57356 12.9485C7.29169 14.2289 7.29169 16.2925 7.29169 20.4166V23.3333C7.29169 27.4575 7.29169 29.521 8.57356 30.8014C9.85398 32.0833 11.9175 32.0833 16.0417 32.0833H18.9584C23.0825 32.0833 25.1461 32.0833 26.4265 30.8014C27.7084 29.521 27.7084 27.4575 27.7084 23.3333Z" stroke="white" stroke-width="1.5" stroke-linejoin="round"/>
<path d="M19.6875 5.10413C19.6875 5.68429 19.457 6.24069 19.0468 6.65092C18.6366 7.06116 18.0802 7.29163 17.5 7.29163C16.9198 7.29163 16.3634 7.06116 15.9532 6.65092C15.543 6.24069 15.3125 5.68429 15.3125 5.10413C15.3125 4.52396 15.543 3.96757 15.9532 3.55733C16.3634 3.14709 16.9198 2.91663 17.5 2.91663C18.0802 2.91663 18.6366 3.14709 19.0468 3.55733C19.457 3.96757 19.6875 4.52396 19.6875 5.10413Z" stroke="white" stroke-width="1.5"/>
<path d="M17.5 7.29163V11.6666M13.125 18.9583V20.4166M21.875 18.9583V20.4166" stroke="white" stroke-width="1.5" stroke-linecap="round" stroke-linejoin="round"/>
<path d="M14.5834 25.5208C14.5834 25.5208 15.5561 26.2499 17.5 26.2499C19.444 26.2499 20.4167 25.5208 20.4167 25.5208" stroke="white" stroke-width="1.5" stroke-linecap="round"/>
</svg>
