<svg width="30" height="37" viewBox="0 0 30 37" fill="none" xmlns="http://www.w3.org/2000/svg">
<path d="M3.12033 21.4708C1.70678 22.4839 1 24.1603 1 26.5C1 30.0095 5.11132 36.0084 8.81901 36.0084H18.3045C21.9331 36.0084 24.1366 32.6805 24.1366 30.0095V19.2389C24.1366 18.4947 23.8554 17.7807 23.3547 17.2537C22.8539 16.7266 22.1744 16.4293 21.4652 16.427C21.1152 16.4259 20.7684 16.4971 20.4446 16.6366C20.1208 16.7762 19.8264 16.9813 19.5782 17.2402C19.3299 17.4992 19.1327 17.8069 18.9979 18.1459C18.863 18.4848 18.7931 18.8483 18.7921 19.2156V19.3107" stroke="white" stroke-width="2" stroke-linecap="round"/>
<path d="M4.27191 23.427V4.59764C4.27191 3.86001 4.55115 3.15259 5.0482 2.63101C5.54525 2.10943 6.21939 1.81641 6.92232 1.81641C7.62525 1.81641 8.29939 2.10943 8.79644 2.63101C9.29349 3.15259 9.57273 3.86001 9.57273 4.59764V18.4161" stroke="white" stroke-width="2" stroke-linecap="round"/>
<path d="M9.57274 18.7204V15.0968C9.57274 14.4539 9.81609 13.8374 10.2493 13.3829C10.6824 12.9283 11.2699 12.673 11.8825 12.673C12.4951 12.673 13.0826 12.9283 13.5158 13.3829C13.949 13.8374 14.1923 14.4539 14.1923 15.0968V19.0903" stroke="white" stroke-width="2" stroke-linecap="round" stroke-linejoin="round"/>
<path d="M14.1725 19.2891V16.8255C14.1725 16.1827 14.4159 15.5662 14.8491 15.1116C15.2822 14.6571 15.8697 14.4017 16.4823 14.4017C17.0949 14.4017 17.6824 14.6571 18.1156 15.1116C18.5488 15.5662 18.7921 16.1827 18.7921 16.8255V19.5873" stroke="white" stroke-width="2" stroke-linecap="round" stroke-linejoin="round"/>
<path d="M4.28758 4.88977H29" stroke="white" stroke-width="2" stroke-linecap="round"/>
<path d="M24.8813 8.77967L26.2544 7.48306L29 4.88983L26.2544 2.29661L24.8813 1" stroke="white" stroke-width="2" stroke-linecap="round" stroke-linejoin="round"/>
</svg>
